<svg width="561" height="164" viewBox="0 0 561 164" fill="none" xmlns="http://www.w3.org/2000/svg">
<path d="M147.625 48.5C153.815 48.5 159.423 49.9891 164.447 52.9668C169.561 55.8543 173.598 59.8249 176.559 64.8779C179.519 69.931 181 75.5708 181 81.7969C181 88.1133 179.519 93.8439 176.559 98.9873C173.598 104.04 169.561 108.056 164.447 111.033C159.423 114.011 153.815 115.5 147.625 115.5C141.345 115.5 135.693 114.011 130.669 111.033C126.603 108.623 123.212 105.533 120.497 101.764C117.769 105.533 114.336 108.623 110.197 111.033C105.173 114.011 99.5654 115.5 93.375 115.5C87.0949 115.5 81.4421 114.011 76.418 111.033C71.3941 108.056 67.402 104.04 64.4414 98.9873C61.4808 93.8439 60 88.1133 60 81.7969C60.0001 75.5708 61.4808 69.9756 64.4414 65.0127C67.402 59.9598 71.3942 55.9445 76.418 52.9668C81.4421 49.989 87.0949 48.5 93.375 48.5C99.5654 48.5001 105.173 49.9891 110.197 52.9668C114.36 55.3173 117.809 58.3854 120.545 62.1709C123.252 58.431 126.626 55.3629 130.669 52.9668C135.693 49.9891 141.345 48.5 147.625 48.5ZM147.625 60.2764C143.588 60.2764 139.998 61.2233 136.858 63.1182C133.719 64.9229 131.251 67.4499 129.457 70.6982C128.465 72.4941 127.749 74.4283 127.306 76.5H113.668C113.202 74.4282 112.45 72.4942 111.408 70.6982C109.614 67.4498 107.146 64.9229 104.006 63.1182C100.956 61.2234 97.412 60.2764 93.375 60.2764C89.338 60.2764 85.7493 61.2234 82.6094 63.1182C79.4693 64.9229 77.0014 67.4497 75.207 70.6982C73.4129 73.9466 72.5157 77.6463 72.5156 81.7969C72.5157 86.0379 73.4127 89.8283 75.207 93.167C77.0014 96.4154 79.4693 98.9869 82.6094 100.882C85.7493 102.777 89.338 103.724 93.375 103.724C97.4121 103.724 101.002 102.777 104.142 100.882C107.281 98.9869 109.749 96.4152 111.543 93.167C112.332 91.6986 112.948 90.1429 113.39 88.5H127.61C128.052 90.1429 128.668 91.6986 129.457 93.167C131.251 96.4152 133.719 98.9869 136.858 100.882C139.998 102.777 143.588 103.724 147.625 103.724C151.662 103.724 155.251 102.777 158.391 100.882C161.531 98.9869 163.999 96.4154 165.793 93.167C167.587 89.8283 168.484 86.0379 168.484 81.7969C168.484 77.6463 167.542 73.9466 165.658 70.6982C163.864 67.4499 161.397 64.9229 158.257 63.1182C155.207 61.2232 151.662 60.2764 147.625 60.2764ZM113.668 76.5C114.044 78.1756 114.233 79.941 114.233 81.7969C114.233 84.1726 113.953 86.4073 113.39 88.5H104V76.5H113.668ZM137 88.5H127.61C127.047 86.4073 126.767 84.1726 126.767 81.7969C126.767 79.941 126.947 78.1756 127.306 76.5H137V88.5Z" fill="white"/>
<path d="M233.88 72.24H246.04V80.8H233.88V72.24ZM257.72 44.96H267.88V119.04H257.72V44.96ZM242.68 46.16H252.6V115.76H242.68V46.16ZM220.92 50.16C224.173 50.16 227 51.2533 229.4 53.44C231.853 55.5733 233.72 58.6667 235 62.72C236.333 66.72 237 71.52 237 77.12C237 82.6667 236.333 87.4667 235 91.52C233.72 95.5733 231.853 98.6933 229.4 100.88C227 103.013 224.147 104.08 220.84 104.08C217.64 104.08 214.813 103.013 212.36 100.88C209.96 98.6933 208.093 95.5733 206.76 91.52C205.48 87.4667 204.84 82.6667 204.84 77.12C204.84 71.52 205.48 66.72 206.76 62.72C208.093 58.6667 209.96 55.5733 212.36 53.44C214.813 51.2533 217.667 50.16 220.92 50.16ZM220.92 60.24C219.587 60.24 218.44 60.8533 217.48 62.08C216.52 63.3067 215.773 65.1733 215.24 67.68C214.76 70.1333 214.52 73.28 214.52 77.12C214.52 80.8533 214.76 83.9733 215.24 86.48C215.773 88.9867 216.52 90.88 217.48 92.16C218.44 93.3867 219.587 94 220.92 94C222.253 94 223.4 93.3867 224.36 92.16C225.373 90.88 226.12 88.9867 226.6 86.48C227.08 83.9733 227.32 80.8533 227.32 77.12C227.32 73.28 227.08 70.1333 226.6 67.68C226.12 65.1733 225.373 63.3067 224.36 62.08C223.4 60.8533 222.253 60.24 220.92 60.24ZM328.754 45.04H339.394V94.24H328.754V45.04ZM308.834 90.64H317.794V92C317.794 95.36 317.154 98.5067 315.874 101.44C314.647 104.373 312.834 107.013 310.434 109.36C308.087 111.707 305.154 113.68 301.634 115.28C298.114 116.933 294.087 118.107 289.554 118.8L285.554 110.56C289.5 109.973 292.914 109.067 295.794 107.84C298.727 106.613 301.154 105.173 303.074 103.52C304.994 101.813 306.434 99.9733 307.394 98C308.354 96.0267 308.834 94.0267 308.834 92V90.64ZM310.754 90.64H319.794V92C319.794 94.0267 320.274 96.0267 321.234 98C322.194 99.9733 323.607 101.813 325.474 103.52C327.394 105.173 329.794 106.613 332.674 107.84C335.607 109.067 339.047 109.973 342.994 110.56L338.994 118.8C334.46 118.107 330.434 116.933 326.914 115.28C323.394 113.68 320.434 111.707 318.034 109.36C315.687 107.013 313.874 104.373 312.594 101.44C311.367 98.4533 310.754 95.3067 310.754 92V90.64ZM299.074 49.52C302.914 49.52 306.354 50.2933 309.394 51.84C312.434 53.3867 314.834 55.52 316.594 58.24C318.354 60.96 319.234 64.1067 319.234 67.68C319.234 71.2 318.354 74.32 316.594 77.04C314.834 79.76 312.434 81.92 309.394 83.52C306.354 85.0667 302.914 85.84 299.074 85.84C295.287 85.84 291.847 85.0667 288.754 83.52C285.714 81.92 283.314 79.76 281.554 77.04C279.794 74.32 278.914 71.2 278.914 67.68C278.914 64.1067 279.794 60.96 281.554 58.24C283.314 55.52 285.714 53.3867 288.754 51.84C291.847 50.2933 295.287 49.52 299.074 49.52ZM299.074 58.48C297.26 58.48 295.607 58.8533 294.114 59.6C292.62 60.2933 291.447 61.3333 290.594 62.72C289.74 64.0533 289.314 65.7067 289.314 67.68C289.314 69.6 289.74 71.2533 290.594 72.64C291.447 73.9733 292.62 75.0133 294.114 75.76C295.607 76.5067 297.26 76.88 299.074 76.88C300.94 76.88 302.594 76.5067 304.034 75.76C305.527 75.0133 306.7 73.9733 307.554 72.64C308.407 71.2533 308.834 69.6 308.834 67.68C308.834 65.7067 308.407 64.0533 307.554 62.72C306.7 61.3333 305.527 60.2933 304.034 59.6C302.594 58.8533 300.94 58.48 299.074 58.48ZM353.467 93.12H358.747C363.228 93.12 367.521 93.0133 371.628 92.8C375.788 92.5333 380.161 92.0267 384.748 91.28L385.628 99.84C380.934 100.693 376.428 101.227 372.108 101.44C367.841 101.653 363.388 101.76 358.747 101.76H353.467V93.12ZM353.308 52.32H379.548V80.64H363.788V96.4H353.467V72.24H369.307V60.72H353.308V52.32ZM404.908 44.96H415.068V119.04H404.908V44.96ZM382.588 70.16H394.028V78.88H382.588V70.16ZM389.868 46.32H399.708V115.52H389.868V46.32ZM476.581 44.88H487.221V119.2H476.581V44.88ZM463.861 71.04H477.861V79.68H463.861V71.04ZM428.341 93.92H434.341C438.448 93.92 442.235 93.8667 445.701 93.76C449.221 93.6533 452.635 93.4667 455.941 93.2C459.248 92.9333 462.635 92.56 466.101 92.08L467.141 100.48C463.568 101.067 460.048 101.493 456.581 101.76C453.168 102.027 449.648 102.213 446.021 102.32C442.395 102.427 438.501 102.48 434.341 102.48H428.341V93.92ZM428.341 51.12H462.661V59.76H438.981V96.56H428.341V51.12ZM436.501 71.76H460.181V80.08H436.501V71.76Z" fill="white"/>
</svg>
