<svg width="512" height="512" viewBox="0 0 512 512" fill="none" xmlns="http://www.w3.org/2000/svg">
<path d="M343.875 147.471C363.93 147.471 382.098 152.295 398.375 161.942C414.942 171.296 428.021 184.16 437.612 200.53C447.204 216.9 452 235.172 452 255.343C452 275.806 447.204 294.37 437.612 311.033C428.021 327.403 414.942 340.411 398.375 350.058C382.098 359.705 363.93 364.529 343.875 364.529C323.53 364.529 305.22 359.705 288.943 350.058C275.769 342.25 264.785 332.24 255.99 320.027C247.151 332.239 236.03 342.25 222.622 350.058C206.346 359.705 188.18 364.529 168.125 364.529C147.779 364.529 129.467 359.705 113.19 350.058C96.9141 340.411 83.9792 327.403 74.3877 311.033C64.7963 294.37 60.0001 275.806 60 255.343C60 235.172 64.7962 217.047 74.3877 200.968C83.9792 184.598 96.914 171.589 113.19 161.942C129.467 152.295 147.779 147.471 168.125 147.471C188.18 147.471 206.346 152.295 222.622 161.942C236.108 169.557 247.281 179.498 256.145 191.762C264.913 179.645 275.846 169.705 288.943 161.942C305.22 152.295 323.53 147.471 343.875 147.471ZM343.875 185.622C330.796 185.622 319.17 188.691 308.997 194.83C298.825 200.676 290.831 208.862 285.019 219.385C281.803 225.207 279.479 231.477 278.043 238.193H233.87C232.362 231.476 229.922 225.207 226.546 219.385C220.733 208.861 212.738 200.676 202.565 194.83C192.684 188.691 181.204 185.622 168.125 185.622C155.046 185.622 143.419 188.691 133.246 194.83C123.073 200.676 115.079 208.861 109.266 219.385C103.453 229.909 100.547 241.896 100.547 255.343C100.547 269.083 103.453 281.361 109.266 292.177C115.079 302.701 123.073 311.031 133.246 317.17C143.419 323.309 155.046 326.379 168.125 326.379C181.204 326.379 192.83 323.309 203.003 317.17C213.175 311.032 221.169 302.701 226.981 292.177C229.536 287.424 231.528 282.387 232.96 277.069H279.04C280.472 282.387 282.464 287.424 285.019 292.177C290.831 302.701 298.825 311.032 308.997 317.17C319.17 323.309 330.796 326.379 343.875 326.379C356.954 326.379 368.581 323.309 378.754 317.17C388.927 311.031 396.921 302.701 402.734 292.177C408.547 281.361 411.453 269.083 411.453 255.343C411.453 241.896 408.401 229.909 402.297 219.385C396.484 208.862 388.492 200.676 378.319 194.83C368.437 188.691 356.954 185.622 343.875 185.622ZM233.87 238.193C235.088 243.618 235.699 249.335 235.699 255.343C235.699 263.044 234.786 270.286 232.96 277.069H202.546V238.193H233.87ZM309.455 277.069H279.04C277.214 270.286 276.301 263.044 276.301 255.343C276.301 249.335 276.883 243.618 278.043 238.193H309.454L309.455 277.069Z" fill="white"/>
</svg>
